<svg width="217" height="58" viewBox="0 0 217 58" fill="none" xmlns="http://www.w3.org/2000/svg">
<path d="M56.6093 57.6938C56.6093 57.5253 56.557 57.4198 56.4931 57.4592C56.4292 57.4987 56.2972 57.3402 56.1997 57.1071C56.0969 56.8612 55.9383 56.6833 55.822 56.6833C55.6635 56.6833 55.6508 56.6481 55.761 56.5153C55.8681 56.3863 55.8646 56.3353 55.7457 56.2954C55.624 56.2544 55.6293 56.1967 55.7706 56.0248C55.9076 55.8583 55.9147 55.7943 55.8006 55.7559C55.7182 55.7282 55.6508 55.653 55.6508 55.5888C55.6508 55.5245 55.7041 55.5049 55.7693 55.5451C55.8372 55.587 55.8573 55.539 55.8164 55.4324C55.7771 55.3302 55.8066 55.2466 55.8818 55.2466C55.9816 55.2466 55.9839 55.1817 55.8904 55.0072C55.7874 54.8149 55.7993 54.7678 55.9509 54.7678C56.1033 54.7678 56.1107 54.737 55.9895 54.6073C55.8344 54.4413 55.5331 54.5897 55.5725 54.8127C55.5826 54.8703 55.5278 54.9407 55.4506 54.9691C55.3583 55.0032 55.334 54.9302 55.3796 54.7559C55.4178 54.6101 55.4001 54.5195 55.3403 54.5545C55.2805 54.5895 55.1237 54.5784 54.9919 54.53C54.8019 54.4602 54.8577 54.4239 55.2615 54.3549C55.579 54.3006 55.7706 54.2042 55.7706 54.0988C55.7706 54.0058 55.8754 53.9297 56.0035 53.9297C56.1315 53.9297 56.31 53.8245 56.4001 53.6959C56.5617 53.4653 57.172 53.1507 57.3698 53.196C57.4256 53.2088 57.7761 53.1424 58.1485 53.0485C58.5209 52.9546 59.1626 52.8398 59.5746 52.7933C59.9865 52.7469 60.3536 52.6604 60.3903 52.601C60.427 52.5416 60.5752 52.4919 60.7195 52.4904C60.8639 52.4889 61.3055 52.3285 61.7008 52.1339C62.0962 51.9393 62.5108 51.7789 62.6222 51.7774C62.7336 51.7759 62.8581 51.7209 62.8988 51.655C62.9396 51.5892 62.912 51.5353 62.8377 51.5353C62.6716 51.5353 62.7315 50.9999 62.8988 50.9882C62.9647 50.9837 63.255 50.9123 63.5439 50.8297C63.8328 50.747 64.2007 50.7124 64.3615 50.7527C64.5223 50.793 64.825 50.7733 65.0343 50.7088C65.2435 50.6443 65.7155 50.5327 66.0832 50.4608C67.0922 50.2635 67.631 50.0986 67.631 49.9873C67.631 49.8719 61.4853 49.9524 59.9637 50.0877C59.162 50.159 58.8562 50.1395 58.5261 49.9961C58.2955 49.8959 58.0798 49.8061 58.0469 49.7966C58.0139 49.7871 57.8294 49.7143 57.6369 49.6348C57.4443 49.5553 57.2017 49.5234 57.0978 49.5638C56.9938 49.6043 55.3993 49.6567 53.5543 49.6804C51.7094 49.704 49.9573 49.777 49.6607 49.8426C49.3642 49.9081 48.4757 50.0243 47.6861 50.1008C46.8966 50.1772 46.1475 50.2949 46.0214 50.3623C45.8953 50.4298 45.5289 50.4597 45.207 50.4288C44.8852 50.3979 44.5928 50.4196 44.5573 50.477C44.5218 50.5345 44.4425 50.5505 44.3812 50.5126C44.3199 50.4747 44.2697 50.5007 44.2697 50.5705C44.2697 50.6402 44.2292 50.6866 44.1798 50.6735C43.9805 50.6208 42.9519 50.8386 42.9519 50.9335C42.9519 51.0504 42.0469 51.2446 41.7047 51.2012C41.5788 51.1852 41.3746 51.2808 41.2508 51.4136C41.127 51.5464 40.9334 51.6614 40.8207 51.6692C40.708 51.6769 40.2922 51.6949 39.8969 51.7091C39.5016 51.7233 38.9625 51.7972 38.6989 51.8732C38.4353 51.9492 38.016 52.0417 37.7671 52.0787C37.5182 52.1157 37.3437 52.1933 37.3795 52.2511C37.491 52.4314 37.2248 52.4786 35.1433 52.6478C35.0327 52.6567 34.9519 52.7151 34.9636 52.7775C34.9754 52.8399 34.8772 52.9226 34.7454 52.9614C34.6136 53.0001 34.3697 53.1243 34.2034 53.2374C33.9857 53.3854 33.532 53.4646 32.586 53.5201C31.8629 53.5624 31.1466 53.5914 30.9943 53.5845C30.8419 53.5777 30.5518 53.6576 30.3494 53.7622C30.1404 53.8702 29.9495 53.9049 29.9075 53.8425C29.8044 53.6893 29.3826 53.5423 29.475 53.6916C29.5724 53.8491 29.4558 53.841 29.1368 53.6682C28.493 53.3195 25.4452 53.5846 25.1272 54.017C25.0288 54.1508 25.018 54.2411 25.0972 54.2675C25.1654 54.2902 25.2212 54.3565 25.2212 54.4148C25.2212 54.4731 25.1458 54.4919 25.0536 54.4565C24.9614 54.4212 24.8504 54.4498 24.8069 54.5202C24.6908 54.708 25.4087 54.6807 25.7962 54.4826C25.9741 54.3916 26.3623 54.2775 26.6588 54.2291C26.9553 54.1806 27.2923 54.1234 27.4076 54.1021C27.5229 54.0807 27.6172 54.1337 27.6172 54.22C27.6172 54.3309 27.7662 54.3652 28.1264 54.337C28.52 54.3062 28.5874 54.325 28.4234 54.4201C28.3067 54.4877 28.2382 54.5867 28.2711 54.64C28.3423 54.7549 27.6725 54.8706 26.3757 54.9672C25.6476 55.0214 25.41 54.9999 25.3293 54.8726C25.2535 54.7531 25.2244 54.749 25.223 54.8576C25.2203 55.078 24.5002 55.0424 24.2423 54.8091C24.1218 54.7001 24.0232 54.6619 24.0232 54.7242C24.0232 54.7929 23.6343 54.8051 23.0348 54.7551C22.4912 54.7099 21.6421 54.6432 21.1479 54.6069C20.6537 54.5706 20.0723 54.4783 19.8559 54.4017C19.6395 54.3252 19.3282 54.2882 19.1642 54.3195C19.0002 54.3509 18.832 54.3215 18.7904 54.2543C18.744 54.1792 18.7753 54.1695 18.8717 54.229C18.9692 54.2893 18.9994 54.2789 18.9516 54.2015C18.8614 54.0556 18.29 53.9235 17.6138 53.8921C17.2149 53.8736 17.1324 53.8267 17.1216 53.6126C17.1099 53.3827 17.1926 53.3457 17.9003 53.2637C18.3357 53.2132 18.8268 53.1836 18.9915 53.1979L19.291 53.2238L18.9731 53.0511C18.4219 52.7517 17.8844 52.6253 16.8351 52.5485C16.275 52.5075 15.4663 52.386 15.038 52.2785C14.053 52.0311 10.6349 52.0122 10.4858 52.2532C10.4345 52.3362 10.3291 52.3649 10.2516 52.317C10.0515 52.1934 7.84682 52.1518 7.92182 52.273C7.99196 52.3864 7.97411 52.3884 6.40691 52.4359C5.30079 52.4694 4.83389 52.5103 3.17766 52.7188C2.42246 52.8139 1.98091 52.7594 1.54928 52.518C1.36852 52.4169 1.40748 52.3594 1.8428 52.0848C2.19393 51.8633 2.62288 51.733 3.27037 51.6512C4.37533 51.5116 5.42959 51.3358 6.18916 51.1644C6.6435 51.0619 6.73412 50.9985 6.68652 50.8166C6.65235 50.686 6.55897 50.6207 6.46041 50.6585C6.36806 50.6939 6.29251 50.6633 6.29251 50.5904C6.29251 50.5175 6.38685 50.457 6.50216 50.456C6.68133 50.4545 6.68568 50.4373 6.53211 50.3381C6.41846 50.2647 6.40607 50.2214 6.4984 50.2202C6.57893 50.2191 6.61336 50.1376 6.57519 50.0382C6.52702 49.9127 6.64655 49.7955 6.9683 49.6526L7.43062 49.4473L6.26009 49.3751C5.61629 49.3354 4.7672 49.3084 4.37321 49.3151C3.97922 49.3217 3.65687 49.3205 3.65687 49.3122C3.65687 49.304 3.76469 49.173 3.89647 49.0212C4.02825 48.8693 4.13608 48.7815 4.13608 48.826C4.13608 48.8706 4.25748 48.8276 4.40586 48.7303C4.55423 48.6332 5.07529 48.4917 5.56377 48.416C6.05224 48.3403 6.66541 48.203 6.92637 48.111C7.18734 48.019 7.59624 47.9418 7.83504 47.9394C8.50223 47.9329 10.1828 47.4962 9.69688 47.4557C9.63648 47.4506 9.47924 47.4217 9.34745 47.3914C9.21567 47.3611 9.04202 47.3219 8.96157 47.3043C8.68747 47.2442 8.66996 47.1277 8.92298 47.0474C9.06185 47.0034 9.31639 46.8369 9.48861 46.6774C9.66084 46.5178 9.92205 46.3873 10.0691 46.3873C10.2161 46.3873 10.3979 46.3133 10.4731 46.2228C10.5854 46.0875 10.4866 46.0442 9.91872 45.9795C9.53863 45.9363 9.06592 45.8748 8.86825 45.8429C8.39797 45.767 6.52663 45.778 6.3981 45.8574C6.2247 45.9645 4.85489 46.015 4.85489 45.9143C4.85489 45.8614 4.93575 45.751 5.03459 45.669C5.13343 45.5871 5.21429 45.4637 5.21429 45.395C5.21429 45.3262 5.17882 45.3054 5.13546 45.3487C5.09211 45.3921 4.98429 45.3675 4.89586 45.2942C4.80684 45.2203 4.73509 45.2119 4.73509 45.2753C4.73509 45.3382 4.65422 45.3897 4.55538 45.3897C4.26766 45.3897 4.34659 45.2615 4.74197 45.0866C5.1866 44.8899 5.12293 44.8074 4.40612 44.6514C3.75222 44.5091 3.62756 44.2861 4.09639 44.0972C4.58158 43.9018 6.8611 43.6482 8.16418 43.6446C8.77498 43.6429 9.41773 43.6057 9.59253 43.5619L9.91034 43.4821L9.56899 43.2031C9.38126 43.0496 9.13649 42.9221 9.02507 42.9198C8.7411 42.9137 8.65479 42.7233 8.80711 42.4389C8.96795 42.1386 10.0101 41.5985 10.4288 41.5985C10.6053 41.5985 10.7074 41.5469 10.6653 41.4788C10.6246 41.413 10.4924 41.3591 10.3715 41.3591C10.1685 41.3591 9.94288 41.0602 9.98734 40.8503C10.0325 40.6369 8.13175 40.8756 7.97268 41.1032C7.85119 41.2771 4.79198 41.7316 4.49124 41.6204L4.20485 41.5145L4.48344 41.3656C4.63666 41.2836 5.63201 41.0716 6.69533 40.8945C8.64108 40.5703 9.11464 40.3415 7.83964 40.3415C7.44788 40.3415 7.08747 40.2731 6.9703 40.1765C6.80389 40.0394 6.57347 40.0356 5.60287 40.154C3.81815 40.3718 2.78093 40.5215 2.53769 40.5961C2.37654 40.6456 2.32807 40.6102 2.35799 40.4646C2.40159 40.2524 2.77224 40.0035 3.35331 39.7961C3.85346 39.6176 3.54257 39.4602 2.90306 39.5682C2.6258 39.615 2.15635 39.6912 1.85984 39.7376L1.32073 39.822L1.76999 39.3917C2.01708 39.1551 2.21925 38.9422 2.21925 38.9187C2.21925 38.8952 1.88495 38.8381 1.47635 38.7919C0.510288 38.6827 -0.00662811 38.4121 6.41704e-05 38.019C0.00357957 37.8117 0.778611 37.5336 1.49976 37.4809C1.79664 37.4592 2.47083 37.3558 2.99796 37.2512C3.52509 37.1466 4.33382 37.0367 4.79514 37.0071C5.25645 36.9775 5.95729 36.8965 6.35256 36.8271C8.80737 36.3964 9.35987 36.2903 9.46568 36.2297C9.5307 36.1925 9.34201 36.1031 9.04637 36.0312C8.74886 35.9588 8.50884 35.8302 8.50884 35.7432C8.50884 35.5417 9.71632 35.1041 10.8122 34.9084C11.3453 34.8132 11.7397 34.6715 11.8688 34.5289C11.9844 34.4013 12.3855 34.2403 12.7822 34.1623C13.6825 33.9853 13.6582 33.8175 12.68 33.4563C12.4703 33.3788 12.323 33.2532 12.3527 33.177C12.4203 33.0037 12.9756 32.7393 13.272 32.7393C13.3945 32.7393 13.4614 32.6854 13.4207 32.6195C13.38 32.5537 12.9455 32.4998 12.4552 32.4998C11.6474 32.4998 11.323 32.3774 11.7135 32.22C12.0625 32.0792 10.3141 32.1554 9.45054 32.3185C8.37515 32.5217 7.79003 32.4367 7.79003 32.0772C7.79003 31.9116 8.10296 31.694 8.96596 31.2597C9.77892 30.8506 10.0932 30.6366 9.98427 30.5663C9.7773 30.4327 9.98158 30.2962 10.7851 30.031C11.9192 29.6566 12.8189 29.0291 12.7008 28.6949C12.6201 28.4666 13.0622 28.3421 14.8885 28.0786C15.7962 27.9477 16.7054 27.7576 16.9087 27.6562C17.1121 27.5548 17.5426 27.4403 17.8654 27.4016C18.7556 27.295 20.4589 26.8644 20.7253 26.6786C20.8553 26.588 21.1249 26.51 21.3243 26.5054C21.5238 26.5008 21.7949 26.4507 21.9266 26.3941C22.1174 26.3122 22.0686 26.2876 21.687 26.2736C20.6659 26.236 20.124 26.1354 19.9887 25.9582C19.8962 25.8373 19.7519 25.8001 19.5694 25.8502C19.3298 25.916 19.3205 25.9082 19.5028 25.7941C19.6193 25.7211 19.808 25.6768 19.9221 25.6956C20.0362 25.7143 20.2021 25.6843 20.2908 25.6287C20.3861 25.569 20.5726 25.5923 20.7474 25.6858C20.9777 25.809 21.0929 25.8127 21.2696 25.7024C21.413 25.6129 21.5229 25.604 21.5687 25.6782C21.6086 25.7427 21.9481 25.7974 22.3231 25.7998C22.6981 25.8021 23.1396 25.881 23.3044 25.9751C23.6632 26.1801 23.7836 26.1951 23.7836 26.035C23.7836 25.9691 23.6995 25.9152 23.5968 25.9152C23.4941 25.9152 23.4396 25.8675 23.4756 25.8091C23.5117 25.7508 23.4284 25.6735 23.2904 25.6375C23.1524 25.6014 23.0629 25.501 23.0916 25.4143C23.1444 25.2544 23.681 25.1607 25.341 25.0216C26.8407 24.8959 27.2578 24.8282 27.2578 24.7107C27.2578 24.6489 27.177 24.5983 27.0781 24.5983C26.9783 24.5983 26.8984 24.4919 26.8984 24.3589C26.8984 24.1833 26.9783 24.1194 27.1979 24.1194C27.5425 24.1194 27.6013 23.9351 27.2832 23.8519C27.1654 23.8211 26.5589 23.8247 25.9354 23.8599C24.1196 23.9623 23.3933 23.9282 23.0134 23.7228C22.8205 23.6184 22.6281 23.5544 22.5859 23.5805C22.5436 23.6066 22.5314 23.4762 22.5586 23.2909C22.618 22.8864 22.4495 22.8233 21.2194 22.7895C20.4832 22.7693 20.4261 22.7511 20.6819 22.6186C21.1028 22.4006 22.6468 22.0877 23.5675 22.0339C24.0381 22.0064 24.4826 21.908 24.6425 21.7961C24.9828 21.5579 25.1879 21.5549 25.418 21.7849C25.5215 21.8883 25.81 21.9634 26.0983 21.9619C26.9862 21.9573 30.2991 21.6206 30.7489 21.4892C31.169 21.3665 31.1817 21.3467 31.0931 20.9541C31.0373 20.7066 31.0498 20.4976 31.1251 20.4224C31.2105 20.337 31.2068 20.2477 31.1132 20.135C30.827 19.7903 31.1911 19.719 32.9394 19.7771C34.2979 19.8222 34.7217 19.7975 34.9973 19.657C35.289 19.5084 36.6038 19.3034 37.5009 19.2667C37.6327 19.2613 38.01 19.2087 38.3395 19.1499L38.9385 19.0428L38.3994 18.9557C38.1029 18.9078 37.2133 18.8961 36.4227 18.9297C35.632 18.9633 34.4998 18.9836 33.9068 18.9748C33.3138 18.9661 32.1547 19.0467 31.3311 19.1539C29.7014 19.3661 28.0207 19.5146 27.2972 19.5102C27.0449 19.5087 26.8047 19.5545 26.7633 19.612C26.7219 19.6695 26.5197 19.7234 26.314 19.7318C26.1083 19.7402 25.94 19.7917 25.94 19.8462C25.94 19.9007 25.8187 19.9113 25.6705 19.8696C25.4594 19.8103 25.4399 19.8211 25.5806 19.9195C25.7355 20.0279 25.7314 20.0455 25.5506 20.0471C25.4353 20.0482 25.341 20.109 25.341 20.1824C25.341 20.2644 25.2271 20.2413 25.0457 20.1226C24.7178 19.9078 24.574 19.8741 24.6737 20.0353C24.7098 20.0937 24.6321 20.1695 24.501 20.2037C24.3647 20.2393 24.2628 20.2067 24.2627 20.1275C24.2627 20.0474 24.0736 19.9891 23.8135 19.9891C23.528 19.9891 23.3745 20.0415 23.3923 20.133C23.4116 20.2321 23.2825 20.2593 22.9782 20.2204C22.4795 20.1565 21.9875 19.8776 21.9847 19.6571C21.9834 19.5628 21.9413 19.5745 21.8667 19.6898C21.7766 19.8292 21.7502 19.7939 21.7488 19.5322C21.7464 19.1004 21.9438 18.732 22.1775 18.732C22.2779 18.732 22.3268 18.6781 22.286 18.6123C22.2453 18.5464 22.3095 18.4884 22.4287 18.4834C22.8235 18.4667 23.0742 18.3942 23.3412 18.2194C23.5805 18.0627 24.143 18.123 24.143 18.3054C24.143 18.3384 24.0707 18.3376 23.9825 18.3036C23.8942 18.2698 23.7459 18.3357 23.653 18.4501C23.5074 18.6294 23.5076 18.644 23.6543 18.5556C23.7851 18.4768 23.805 18.5039 23.7401 18.6727C23.6897 18.8041 23.7176 18.9315 23.8096 18.9898C24.0388 19.1352 24.2318 19.1078 24.0233 18.9596C23.8881 18.8634 23.9575 18.8476 24.3037 18.8958C24.5582 18.9312 24.8617 18.8987 24.9829 18.8231C25.1486 18.7196 25.2445 18.7218 25.3773 18.8319C25.5188 18.9493 25.5707 18.9363 25.6457 18.7649C25.6968 18.648 25.73 18.5119 25.7196 18.4625C25.7091 18.4131 25.7769 18.3727 25.8702 18.3727C25.9636 18.3727 26.0605 18.3111 26.0856 18.2358C26.1108 18.1605 26.2895 18.082 26.4828 18.0614C26.6761 18.0408 26.8945 17.9417 26.9681 17.841C27.0417 17.7404 27.1456 17.6977 27.199 17.746C27.2524 17.7944 27.2623 17.7397 27.2209 17.6245C27.1283 17.3666 27.3574 17.3425 27.4562 17.5997C27.519 17.7632 27.553 17.7611 27.752 17.5811C27.9644 17.3891 27.9769 17.3904 27.9786 17.6059C27.9801 17.797 27.9993 17.8048 28.0966 17.6544C28.2697 17.3867 28.245 17.3284 27.9243 17.2479C27.721 17.1969 27.6381 17.0982 27.6513 16.9226C27.6724 16.643 28.0897 16.434 28.5705 16.4622C29.0187 16.4885 29.4144 16.3345 29.4144 16.1336C29.4144 16.0043 29.5335 15.9664 29.8636 15.9905C30.3465 16.0257 31.1588 15.891 31.451 15.7272C31.5961 15.6458 31.5846 15.6246 31.3911 15.6171C31.2593 15.612 30.882 15.5826 30.5525 15.5517C29.5338 15.4563 28.1787 15.4593 27.6899 15.558C27.3543 15.6259 27.2467 15.6144 27.3068 15.5174C27.3583 15.4341 27.3259 15.4071 27.222 15.447C27.1235 15.4848 26.9644 15.3752 26.838 15.1824C26.6836 14.9469 26.6633 14.8395 26.7667 14.8051C26.8638 14.7728 26.8403 14.7014 26.6952 14.5876C26.4984 14.4333 26.5111 14.4238 26.8386 14.4807C27.0363 14.515 27.1307 14.5114 27.0483 14.4726C26.7449 14.3296 26.912 14.1825 27.3777 14.1825C27.6802 14.1825 27.8576 14.2377 27.8588 14.3322C27.8601 14.4423 27.8878 14.4389 27.9636 14.3194C28.0283 14.2173 28.0946 14.2023 28.1419 14.2788C28.2224 14.4088 28.3749 14.3987 28.7493 14.2385C28.8777 14.1836 29.16 14.135 29.3765 14.1307C29.8731 14.1206 30.0343 13.8234 29.5432 13.8234C29.349 13.8234 29.1705 13.7455 29.1314 13.6438C29.0849 13.5226 29.1372 13.4642 29.2924 13.4642C29.4188 13.4642 29.5654 13.3969 29.6181 13.3146C29.7554 13.0999 30.2437 12.8457 30.3694 12.9234C30.428 12.9596 30.5099 12.9345 30.5513 12.8676C30.5927 12.8006 30.7753 12.7459 30.9571 12.7459C31.1389 12.7459 31.5805 12.6584 31.9384 12.5515C32.5033 12.3827 32.554 12.3439 32.3233 12.2574C32.1771 12.2026 31.1768 12.1651 30.1003 12.174C29.0239 12.183 28.0728 12.1467 27.9867 12.0936C27.8975 12.0385 27.7949 12.0539 27.7482 12.1294C27.6519 12.2851 23.9277 12.4031 23.8352 12.2534C23.8026 12.2008 23.6923 12.1898 23.5901 12.229C23.4642 12.2773 23.4476 12.3272 23.5387 12.3834C23.6127 12.4291 23.5094 12.4665 23.3092 12.4665C23.1089 12.4665 22.9451 12.415 22.9451 12.3521C22.9451 12.2892 22.8629 12.3058 22.7625 12.3891C22.662 12.4724 22.5415 12.5023 22.4947 12.4555C22.4479 12.4086 22.5435 12.2684 22.7072 12.1439L23.005 11.9174L22.7055 11.9749C22.443 12.0254 22.4356 12.0184 22.6456 11.9187C22.9911 11.7547 23.5589 11.7716 23.8917 11.956C24.2162 12.1356 24.6223 12.0764 24.6223 11.8495C24.6223 11.745 24.8588 11.698 25.401 11.6949C25.8896 11.6922 26.1797 11.7395 26.1797 11.8221C26.1797 11.8944 26.2471 11.8653 26.3295 11.7574C26.4376 11.6157 26.762 11.5399 27.4975 11.4844C28.0576 11.4422 28.8561 11.3316 29.272 11.2387C29.6879 11.1458 30.2001 11.0646 30.4102 11.0583C30.6202 11.052 31.0616 10.9733 31.3911 10.8833C31.9528 10.7301 31.8894 10.7239 30.3728 10.7852C29.4832 10.8211 28.6746 10.8514 28.5757 10.8525C28.4769 10.8535 27.237 10.9807 25.8203 11.1351C24.4036 11.2894 22.8592 11.4321 22.3881 11.4523C21.9171 11.4724 21.5564 11.5292 21.5865 11.5786C21.6167 11.628 21.4091 11.6686 21.1252 11.6689C20.8412 11.6689 20.1237 11.7474 19.5307 11.8428C18.5138 12.0064 16.1217 12.1751 16.4466 12.0603C16.5293 12.031 16.5666 11.9578 16.5293 11.8976C16.4921 11.8374 16.6131 11.7855 16.7981 11.7824C16.9832 11.7793 17.3234 11.6744 17.554 11.5494C17.7846 11.4245 18.0811 11.272 18.2129 11.2106C18.646 11.0088 25.7118 9.84066 27.3777 9.69549C27.8719 9.65243 29.3005 9.51047 30.5525 9.38005C31.8044 9.24962 33.4568 9.09063 34.2245 9.02674C34.9921 8.96283 35.8796 8.83254 36.1966 8.7372C36.6131 8.61195 36.796 8.6009 36.8557 8.6974C36.9313 8.81976 38.1917 8.78625 39.7173 8.62135C39.9479 8.59641 40.6757 8.54236 41.3346 8.50122C42.517 8.42741 44.3183 8.17907 45.3265 7.95089C45.6113 7.88646 45.8947 7.8649 45.9563 7.90299C46.018 7.94108 46.8527 7.85352 47.8112 7.70843C49.2294 7.49374 49.605 7.47191 49.8281 7.59124C50.0524 7.71121 50.3397 7.69108 51.409 7.48049C53.189 7.12994 55.5118 6.67421 56.6693 6.44842C57.1964 6.34558 57.9622 6.18503 58.3711 6.09165C58.78 5.99826 59.2921 5.92211 59.5092 5.92243C59.7263 5.92243 60.1465 5.84545 60.443 5.75062C60.9427 5.5908 61.9658 5.41339 64.696 5.01315C66.0985 4.80753 66.3811 4.76007 67.8108 4.48999C68.4697 4.36552 69.548 4.17478 70.2069 4.06609C70.8658 3.95741 71.5666 3.84177 71.7643 3.80912C73.1631 3.5781 73.4295 3.58239 73.7077 3.84047C73.8578 3.97971 73.9806 4.15481 73.9806 4.22956C73.9806 4.30432 74.021 4.3591 74.0705 4.3513C74.1199 4.34358 74.2835 4.34358 74.4341 4.3513C74.663 4.36314 74.6882 4.40211 74.5881 4.58917C74.4414 4.86303 74.5587 5.01074 74.7783 4.82866C75.0253 4.6238 74.969 4.80807 74.6848 5.1347C74.5358 5.30603 74.2364 5.45964 73.9608 5.50616C73.5585 5.57408 73.5126 5.61152 73.6414 5.76662C73.8348 5.99941 73.6714 6.01385 81.3484 5.08559C81.8755 5.02185 82.819 4.94387 83.445 4.91229C84.0709 4.88072 85.203 4.79817 85.9608 4.72886C86.7185 4.65956 87.7159 4.58151 88.1771 4.55542C88.6384 4.52934 89.2289 4.45218 89.4895 4.38396C89.7501 4.31575 90.7838 4.25661 91.7866 4.25257C92.7895 4.24854 93.6814 4.2212 93.7688 4.19185C93.9843 4.11944 96.7917 3.97247 97.4597 3.99863C97.7551 4.01023 98.0792 4.09421 98.18 4.18534C98.4057 4.38953 98.9808 4.40999 101.655 4.30905C102.884 4.26263 104.013 4.15711 104.384 4.05396C104.867 3.91935 105.669 3.88251 107.798 3.89714C109.328 3.90772 111.874 3.87561 113.455 3.82593C116.66 3.72525 116.489 3.72411 119.805 3.86796C121.952 3.9611 123.19 3.96497 125.076 3.88442C125.406 3.87035 125.581 3.83419 125.465 3.80408C125.35 3.77397 125.256 3.69301 125.256 3.62418C125.256 3.54163 125.592 3.52277 126.244 3.56878C126.788 3.60714 128.419 3.69312 129.868 3.75985C131.318 3.82659 133.178 3.93645 134.001 4.004C137.31 4.27538 138.572 4.37103 140.291 4.48066C144.589 4.75488 146.855 4.86414 149.216 4.91108C150.303 4.9327 151.651 4.98709 152.211 5.03195C152.771 5.07681 153.607 5.10868 154.068 5.10277C154.529 5.09696 155.446 5.14501 156.105 5.20978C156.764 5.27455 158.898 5.35126 160.847 5.38026C162.796 5.40927 164.629 5.4855 164.92 5.54968C165.211 5.61386 165.873 5.69555 166.39 5.73121C166.908 5.76687 167.501 5.82377 167.708 5.85764C168.417 5.97347 169.523 6.05222 171.14 6.10199C172.564 6.14582 173.948 6.25102 175.992 6.47087C176.321 6.50629 176.78 6.55031 177.01 6.56868C177.241 6.58707 177.834 6.63667 178.328 6.67894C178.822 6.72121 179.658 6.78874 180.185 6.82903C180.712 6.8693 181.17 6.91886 181.203 6.93915C181.236 6.95944 181.57 7.00857 181.944 7.04839C182.319 7.08819 182.705 7.15105 182.801 7.18807C182.898 7.22507 183.454 7.2714 184.037 7.29102C185.638 7.34488 185.636 7.34456 185.636 7.53806C185.636 7.63683 185.693 7.71764 185.763 7.71764C185.833 7.71764 185.851 7.65462 185.803 7.57758C185.744 7.48208 185.783 7.46303 185.926 7.51772C186.041 7.56184 186.254 7.59793 186.399 7.59793C186.577 7.59793 186.669 7.67575 186.681 7.83737C186.703 8.12356 186.638 8.1373 186.397 7.89722C186.147 7.64664 185.866 7.66542 185.95 7.92716C185.992 8.05607 185.979 8.0852 185.917 8.00287C185.848 7.91169 185.51 7.89457 184.857 7.94913C183.733 8.04304 182.884 8.0172 181.323 7.8415C180.697 7.77106 179.888 7.68445 179.526 7.64904C179.164 7.61364 178.804 7.56413 178.727 7.53899C178.65 7.51387 178.556 7.57502 178.518 7.67487C178.466 7.80935 178.352 7.83543 178.079 7.77546C177.65 7.68127 177.374 7.64546 176.231 7.53555C175.77 7.49118 175.361 7.43506 175.321 7.41085C175.237 7.35925 173.635 7.35077 171.439 7.39031C170.046 7.41539 169.064 7.34686 168.331 7.17346C167.919 7.07576 165.03 7.03349 165.03 7.12516C165.03 7.17231 165.394 7.24979 165.839 7.29737C166.283 7.34495 166.755 7.40512 166.887 7.43109C167.811 7.6133 170.287 7.8175 172.278 7.87578C172.739 7.88929 173.174 7.93681 173.243 7.98138C173.359 8.05551 177.028 8.34138 177.224 8.29162C177.271 8.27976 177.714 8.30776 178.208 8.35383C178.972 8.42504 180.923 8.56834 181.413 8.58921C181.59 8.59674 181.611 8.75128 181.448 8.85161C181.332 8.92361 180.429 8.94024 179.611 8.88542C179.362 8.86868 179.114 8.78407 179.06 8.69741C178.988 8.58017 178.782 8.5606 178.256 8.62095C177.867 8.66557 177.513 8.7235 177.469 8.74969C177.425 8.7759 177.307 8.71561 177.207 8.61573C177.107 8.51586 176.997 8.48026 176.962 8.53665C176.894 8.64607 174.476 8.59946 173.775 8.47525C173.545 8.43437 173.138 8.38981 172.872 8.37624C172.606 8.36266 172.269 8.28784 172.123 8.20997C171.912 8.09677 171.859 8.10043 171.859 8.22825C171.859 8.32234 171.698 8.40101 171.469 8.4195C170.522 8.49588 169.196 8.48864 168.145 8.40135C167.389 8.33857 167.066 8.34642 167.183 8.42478C167.655 8.74076 166.769 8.8966 165.389 8.74024C164.166 8.60162 163.947 8.59432 163.419 8.6745C163.146 8.71587 162.764 8.70704 162.569 8.65488C162.056 8.5175 159.389 8.27421 158.201 8.25646C157.641 8.24809 156.833 8.20439 156.404 8.15937C155.976 8.11436 155.113 8.04988 154.487 8.01608C153.861 7.98228 152.379 7.87542 151.193 7.77861C150.007 7.6818 148.243 7.56638 147.273 7.52215C145.692 7.45005 145.501 7.46239 145.432 7.64108C145.367 7.81104 145.159 7.8397 144.021 7.83536C143.287 7.83261 142.444 7.87396 142.148 7.92737L141.609 8.0245L142.507 8.15798C143.001 8.2314 143.594 8.29001 143.825 8.2882C144.056 8.28624 144.999 8.36834 145.922 8.4703C146.844 8.57226 148.596 8.71584 149.815 8.78936C151.034 8.86286 152.151 8.94879 152.298 8.98031C152.445 9.01183 153.658 9.09007 154.993 9.15416C157.395 9.26937 159.077 9.36339 160.358 9.45394C160.72 9.47956 161.963 9.55509 163.12 9.62178C164.277 9.68847 165.302 9.76702 165.397 9.79634C165.491 9.82566 165.677 9.8904 165.809 9.9402C165.94 9.99 166.256 10.0457 166.509 10.064C166.762 10.0823 167.032 10.1826 167.108 10.287C167.219 10.4378 167.531 10.4832 168.624 10.5078C169.382 10.5248 170.056 10.5719 170.122 10.6124C170.187 10.6529 170.646 10.7176 171.14 10.7562C173.502 10.9409 175.864 11.091 176.95 11.1254C177.609 11.1462 179.011 11.2574 180.065 11.3723C181.119 11.4873 182.467 11.5993 183.06 11.6211C187.165 11.7724 190.443 11.9629 192.165 12.1502C192.758 12.2147 193.798 12.3022 194.475 12.3445C195.152 12.3869 195.735 12.4676 195.77 12.5239C195.805 12.5802 195.655 12.6306 195.437 12.6359C195.219 12.6413 194.888 12.6567 194.702 12.6702C194.516 12.6837 194.34 12.6568 194.312 12.6105C194.283 12.5642 194.061 12.5813 193.817 12.6484C193.57 12.7166 193.028 12.7357 192.59 12.6915C192.159 12.6481 189.865 12.5914 187.493 12.5656C185.121 12.5399 182.29 12.484 181.203 12.4415C179.265 12.3657 178.716 12.412 179.987 12.5441C180.34 12.5807 180.655 12.6368 180.687 12.6686C180.772 12.754 180.334 12.9652 179.971 13.0139C179.547 13.0705 179.413 13.2222 179.776 13.2352C179.935 13.2409 180.766 13.2958 181.622 13.3572C182.479 13.4185 184.164 13.5006 185.366 13.5395C187.343 13.6034 187.553 13.6303 187.553 13.82C187.553 14.0834 188.035 14.1456 190.942 14.2576C192.114 14.3027 193.101 14.3851 193.135 14.4407C193.169 14.4962 193.434 14.5417 193.722 14.5417C194.707 14.5417 194.431 14.8723 193.222 15.1416C192.881 15.2176 192.422 15.2699 192.204 15.2578C190.744 15.177 191.127 15.4127 192.764 15.603C193.423 15.6797 194.339 15.7684 194.801 15.8003C195.262 15.8322 196.098 15.912 196.658 15.9776C197.218 16.0433 198.35 16.1325 199.173 16.1759C200.188 16.2294 200.71 16.3055 200.791 16.4118C200.857 16.4987 201.285 16.6034 201.749 16.6466C202.21 16.6895 202.642 16.7903 202.708 16.8707C202.774 16.9511 203.221 17.0532 203.702 17.0976C204.184 17.1421 204.698 17.2575 204.846 17.3542C205.015 17.4651 205.533 17.5496 206.247 17.5828C207.786 17.6544 208.992 17.7893 209.059 17.8973C209.13 18.0109 208.081 18.1732 207.919 18.0737C207.853 18.0329 207.799 18.0505 207.799 18.1129C207.799 18.1753 207.988 18.2618 208.219 18.305C208.674 18.3904 208.76 18.5393 208.428 18.6678C208.037 18.8195 208.585 19.0597 209.816 19.2764C210.851 19.4584 211.504 19.6833 211.028 19.6933C210.58 19.7027 211.271 19.9137 211.991 19.9873C212.418 20.031 212.831 20.1187 212.907 20.1822C212.984 20.2458 213.388 20.3526 213.804 20.4197C214.962 20.606 214.95 20.7557 213.768 20.8485C213.327 20.8832 212.924 20.9859 212.802 21.0944C212.632 21.2467 212.424 21.2649 211.664 21.194C210.119 21.0499 209.814 21.0779 209.582 21.3851C209.468 21.5354 209.399 21.696 209.427 21.7421C209.456 21.7882 209.842 21.8636 210.286 21.9096C210.73 21.9557 211.148 22.0357 211.214 22.0874C211.279 22.1391 211.589 22.2195 211.902 22.266C212.761 22.3938 212.585 22.563 211.593 22.563C211.11 22.563 210.674 22.6034 210.624 22.6528C210.574 22.7021 210.071 22.7425 209.507 22.7425C208.794 22.7425 208.465 22.7881 208.43 22.8922C208.394 22.9947 208.523 23.042 208.837 23.0425C209.09 23.0427 209.485 23.0926 209.716 23.153C209.947 23.2134 210.592 23.2969 211.149 23.3386C211.707 23.3802 212.224 23.4647 212.299 23.5263C212.373 23.5879 212.465 23.607 212.503 23.5686C212.542 23.5303 212.699 23.5436 212.852 23.5983C213.067 23.6751 212.939 23.7151 212.292 23.774C211.528 23.8435 210.656 24.0182 210.195 24.1944C209.903 24.3061 210.358 24.429 211.723 24.6068C212.398 24.6948 212.951 24.7988 212.951 24.8378C212.951 24.8769 213.301 24.8866 213.729 24.8593C214.355 24.8195 214.508 24.8441 214.508 24.9847C214.508 25.2017 214.129 25.5566 213.9 25.5541C213.759 25.5526 213.76 25.5322 213.909 25.4362C214.062 25.3375 214.057 25.3199 213.875 25.3184C213.758 25.3173 213.63 25.4001 213.591 25.5023C213.53 25.6606 213.313 25.6788 212.127 25.6255C210.64 25.5587 210.275 25.6379 210.548 25.9677C211.007 26.5201 212.878 27.1123 214.164 27.1123C214.941 27.1123 215.347 27.2575 215.347 27.5356C215.347 27.6747 215.155 27.7103 214.418 27.7081C213.907 27.7066 213.274 27.6485 213.01 27.5791C212.747 27.5098 211.505 27.4286 210.251 27.3988C208.033 27.346 207.97 27.3512 207.952 27.5852C207.935 27.8155 208.081 27.9813 208.338 28.0229C208.404 28.0335 208.921 28.1294 209.487 28.2359C211.338 28.5846 212.983 28.797 214.665 28.9049C216.224 29.0049 216.756 29.142 216.595 29.4025C216.558 29.462 216.477 29.4788 216.414 29.4399C216.351 29.401 216.314 29.4406 216.332 29.5278C216.35 29.6154 216.272 29.679 216.157 29.6699C216.042 29.6609 215.974 29.6954 216.006 29.7466C216.037 29.7978 215.88 29.8739 215.657 29.9159C215.173 30.0065 215.059 30.2223 215.306 30.5756C215.438 30.7639 215.452 30.8761 215.358 30.9895C215.204 31.1753 215.305 31.3025 215.606 31.3025C215.727 31.3025 215.826 31.3251 215.826 31.3526C215.826 31.3801 215.862 31.4959 215.905 31.6098C215.978 31.8 215.898 31.8104 214.917 31.7375C214.33 31.6938 213.647 31.6261 213.4 31.5869C213.042 31.5303 212.951 31.5539 212.951 31.7025C212.951 31.8052 212.864 31.9378 212.757 31.9972C212.483 32.1506 212.648 32.8404 212.992 32.979C213.238 33.0782 213.239 33.0839 213.01 33.0992C212.771 33.1152 212.771 33.1152 213.01 33.2181C213.244 33.3184 212.918 33.3613 211.693 33.3912C211.182 33.4037 210.794 33.5648 210.794 33.7649C210.794 33.8718 210.67 33.937 210.465 33.938C210.283 33.9391 210.013 33.9725 209.863 34.0126C209.607 34.081 209.604 34.0955 209.803 34.2466C209.92 34.3352 210.163 34.4094 210.343 34.4114C210.523 34.4136 211.027 34.6038 211.461 34.8343C211.9 35.0667 212.426 35.2533 212.643 35.2533C213.369 35.2533 214.502 35.4057 214.446 35.4959C214.416 35.5451 214.482 35.578 214.595 35.569C214.707 35.56 214.818 35.6454 214.841 35.7589C214.896 36.0223 214.188 36.4765 213.823 36.4123C213.677 36.3866 213.538 36.4244 213.514 36.4962C213.458 36.6655 212.06 36.7134 211.5 36.5652C211.263 36.5022 210.037 36.4361 208.775 36.4182C206.642 36.3881 206.013 36.4492 206.811 36.6091C206.992 36.6455 207.383 36.73 207.679 36.7971C207.976 36.8641 208.448 36.9213 208.728 36.9242C209.008 36.927 209.237 36.9833 209.237 37.0491C209.237 37.1149 209.321 37.1688 209.424 37.1688C209.527 37.1688 209.723 37.228 209.858 37.3003C210.101 37.4305 210.101 37.4334 209.82 37.5733C209.329 37.8181 209.481 38.0491 210.307 38.3115C210.731 38.4462 211.103 38.6348 211.133 38.7306C211.164 38.8264 211.237 38.936 211.295 38.9742C211.479 39.0943 211.259 39.4637 211.052 39.3842C210.947 39.344 210.894 39.3442 210.935 39.3846C210.975 39.425 210.872 39.5939 210.706 39.7598C210.488 39.9782 210.263 40.0671 209.892 40.0814C209.61 40.0924 209.401 40.1365 209.427 40.1796C209.454 40.2226 208.96 40.2315 208.329 40.1992C207.412 40.1523 207.142 40.1769 206.982 40.322C206.759 40.5235 205.582 40.6066 204.968 40.4642C204.734 40.4098 204.563 40.4266 204.512 40.509C204.467 40.5815 204.303 40.6408 204.148 40.6408C203.787 40.6408 203.486 40.7556 203.486 40.893C203.486 40.9518 203.564 40.9999 203.66 40.9999C203.756 40.9999 203.879 41.0816 203.935 41.1814C203.998 41.2941 204.467 41.4465 205.169 41.5831C206.553 41.8522 207.572 42.2637 207.476 42.5146C207.439 42.6109 207.332 42.6603 207.238 42.6244C207.145 42.5884 207.098 42.6077 207.135 42.6672C207.172 42.7267 207.06 42.9433 206.888 43.1484C206.656 43.423 206.51 43.5013 206.333 43.4451C206.199 43.4027 206.122 43.4173 206.159 43.4777C206.196 43.5377 206.039 43.592 205.81 43.5985C205.581 43.605 205.015 43.703 204.552 43.8163L203.712 44.0222L203.979 44.3069C204.126 44.4634 204.297 44.5915 204.358 44.5915C204.418 44.5915 204.653 44.6793 204.879 44.7865C205.274 44.9734 205.283 44.9929 205.109 45.2591C204.994 45.4341 204.971 45.5643 205.047 45.6112C205.113 45.6521 205.133 45.7414 205.091 45.8098C205.041 45.8899 204.977 45.8764 204.909 45.7716C204.841 45.6662 204.772 45.652 204.714 45.7313C204.665 45.7985 204.463 45.9314 204.265 46.0267L203.906 46.1999L204.285 46.2406C204.695 46.2846 204.915 46.5918 204.617 46.7059C204.517 46.7445 204.404 46.7463 204.368 46.7099C204.332 46.6735 204.122 46.7445 203.903 46.8676C203.684 46.9907 203.299 47.1298 203.049 47.1768C202.799 47.2237 202.521 47.3346 202.432 47.4233C202.222 47.6333 202.14 47.6287 201.027 47.3442C200.028 47.0889 199.746 47.1127 199.336 47.4871C199.105 47.6982 199.012 47.7087 198.386 47.593C197.565 47.4413 196.018 47.4219 196.106 47.5644C196.14 47.6192 196.561 47.731 197.042 47.8129C198.266 48.0216 198.404 48.0664 198.203 48.1906C197.854 48.4059 199.415 48.9141 200.941 49.082C201.353 49.1273 201.716 49.2067 201.748 49.2583C201.78 49.3099 201.693 49.4958 201.554 49.6714C201.322 49.9662 201.318 50.0068 201.496 50.2037C201.602 50.3209 201.689 50.4463 201.689 50.4823C201.689 50.6302 199.661 50.4173 198.994 50.1994C198.035 49.886 196.093 49.6572 195.913 49.8365C195.819 49.9314 195.818 50.0128 195.91 50.1245C196.036 50.2754 196.228 50.3399 197.826 50.7677C198.324 50.9011 198.574 51.0286 198.574 51.1485C198.574 51.3002 198.433 51.3161 197.685 51.2484C197.116 51.1968 196.769 51.2124 196.72 51.2917C196.678 51.3598 196.709 51.4156 196.79 51.4156C196.871 51.4156 196.909 51.4434 196.875 51.4775C196.795 51.5578 195.098 51.202 194.929 51.0695C194.797 50.9653 193.047 50.696 192.674 50.7224C192.559 50.7305 192.464 50.8046 192.464 50.887C192.464 50.9694 192.437 51.1094 192.402 51.1982C192.344 51.3515 193.807 51.6615 196.328 52.0299C196.707 52.0852 197.212 52.2121 197.451 52.3118C197.689 52.4115 198.053 52.4933 198.259 52.4937C198.802 52.4948 199.581 52.7318 199.455 52.8576C199.397 52.9159 198.668 52.9789 197.834 52.9977C197.001 53.0164 196.328 53.0409 196.339 53.0521C196.35 53.0633 196.625 53.177 196.951 53.3048C197.518 53.5274 197.531 53.5433 197.272 53.6819C197.069 53.7904 196.852 53.7945 196.404 53.6985C195.675 53.5422 195.579 53.5402 195.579 53.6807C195.579 53.7413 195.74 53.8263 195.937 53.8695C196.592 54.0132 196.45 54.1691 195.665 54.1691C195.207 54.1691 194.745 54.245 194.52 54.357C194.293 54.4703 194.038 54.5116 193.878 54.4608C193.536 54.3525 187.912 54.3111 187.977 54.4175C188.117 54.6428 186.545 54.6417 185.204 54.4153C182.488 53.9572 180.178 53.6968 178.687 53.6808C177.864 53.672 176.624 53.5908 175.932 53.5003C175.24 53.4098 174.007 53.2803 173.193 53.2124C172.378 53.1445 171.677 53.0682 171.635 53.0429C171.593 53.0176 171.155 52.9625 170.661 52.9204C170.166 52.8784 169.573 52.8212 169.343 52.7934C168.863 52.7354 166.677 52.6136 165.09 52.5564C163.942 52.515 162.197 52.4049 161.016 52.2993C160.621 52.2639 159.085 52.212 157.602 52.1839C156.12 52.1558 154.367 52.0887 153.709 52.0347C153.05 51.9807 151.227 51.9419 149.659 51.9485C147.287 51.9584 146.788 51.9901 146.694 52.1369C146.598 52.2866 146.564 52.288 146.473 52.1463C146.401 52.035 146.247 52.0029 146.011 52.05C145.816 52.089 145.598 52.062 145.526 51.9897C145.454 51.9177 145.217 51.8473 144.999 51.8334C144.782 51.8195 144.496 51.7763 144.364 51.7373C143.646 51.5248 142.898 51.4631 142.597 51.5913C142.355 51.6943 141.751 51.5727 141.834 51.4378C141.865 51.3881 141.288 51.3329 140.551 51.3152C138.568 51.2676 138.363 51.2458 138.138 51.0597C137.956 50.9084 137.938 50.9153 137.974 51.1225C138.001 51.2805 137.957 51.3419 137.835 51.313C137.736 51.2896 137.534 51.2694 137.386 51.2681C137.237 51.2668 137.116 51.2244 137.116 51.1738C137.116 51.1232 137.029 51.0486 136.923 51.0078C136.783 50.9541 136.75 50.9851 136.802 51.121C136.851 51.2499 136.828 51.2788 136.725 51.2139C136.644 51.1621 136.065 51.1028 135.439 51.0821C134.122 51.0386 134.318 51.0392 128.131 51.061C125.528 51.0701 123.065 51.0387 122.658 50.9912C122.251 50.9436 121.827 50.9395 121.716 50.982C121.512 51.0601 117.598 51.2145 116.396 51.1918C115.456 51.174 114.389 51.7265 114.982 51.9241C115.071 51.9535 115.01 52.0382 114.833 52.1316C114.668 52.2183 114.503 52.3347 114.467 52.3903C114.335 52.5912 113.317 52.7033 113.029 52.5488C112.846 52.4514 112.364 52.4165 111.606 52.4456C110.974 52.4699 108.901 52.5182 106.999 52.553C105.096 52.5877 103.408 52.6489 103.248 52.6891C103.088 52.7292 102.408 52.7703 101.737 52.7804C101.066 52.7905 100.409 52.8593 100.277 52.9333C100.041 53.0657 98.9301 53.2831 98.7441 53.2332C98.5149 53.1717 98.0893 53.1871 97.7012 53.271C97.4706 53.3209 97.1741 53.3527 97.0423 53.3417C96.9105 53.3306 96.6949 53.3121 96.5631 53.3005C96.4313 53.2889 95.8113 53.3426 95.1854 53.4199C94.5594 53.4973 93.8142 53.5594 93.5293 53.5581C93.2445 53.5568 92.948 53.6065 92.8704 53.6688C92.7929 53.7312 92.5542 53.8196 92.3401 53.8653C92.0214 53.9334 91.9507 53.9118 91.9507 53.7459C91.9507 53.5664 91.8516 53.553 91.0822 53.6281C90.6045 53.6747 89.351 53.7252 88.2968 53.7404C87.2425 53.7556 86.0896 53.8313 85.7346 53.9086C85.3797 53.9859 85.0631 54.0492 85.0311 54.0492C84.9991 54.0492 85.04 54.13 85.122 54.2288C85.2041 54.3276 85.4533 54.4084 85.6758 54.4084C85.8984 54.4084 86.0805 54.4309 86.0805 54.4584C86.0805 54.486 86.1132 54.5937 86.1532 54.6979C86.2529 54.9576 85.9156 54.9448 85.6494 54.6788C85.4986 54.5281 85.427 54.5117 85.391 54.6197C85.3636 54.7018 85.2919 54.7386 85.2316 54.7013C85.1713 54.6642 85.122 54.6773 85.122 54.7306C85.122 54.7838 85.0007 54.834 84.8525 54.8421C84.7042 54.8502 83.8821 54.9177 83.0255 54.9923C82.1689 55.0668 80.4438 55.1493 79.1919 55.1757C77.9399 55.2021 76.7809 55.2532 76.6161 55.2893C76.058 55.4116 72.9893 55.6953 71.3448 55.7766C68.2978 55.9272 65.9876 56.3627 65.5113 56.8763C65.3623 57.037 65.0997 57.1667 64.9112 57.1728C63.3609 57.2232 61.208 57.3845 60.2632 57.5212C59.8678 57.5784 59.1743 57.6582 58.722 57.6985C58.2697 57.7389 57.6288 57.8233 57.298 57.886C56.9671 57.9487 56.6767 58 56.6528 58C56.6288 58 56.6092 57.8621 56.6092 57.6936L56.6093 57.6938ZM56.6093 56.6045C56.6093 56.4736 56.5562 56.4638 56.3741 56.5612C56.2336 56.6363 56.1669 56.7597 56.2084 56.8677C56.2619 57.0071 56.3159 57.017 56.4435 56.9111C56.5347 56.8355 56.6093 56.6976 56.6093 56.6045ZM76.7959 54.8239C77.2646 54.6559 77.2527 54.6535 76.2568 54.7118C73.976 54.8455 73.2617 54.9132 73.2617 54.9957C73.2617 55.1519 76.2917 55.0046 76.7959 54.8239ZM21.1479 53.3782C21.1479 53.3523 21.0671 53.3311 20.9682 53.3311C20.8694 53.3311 20.7885 53.3833 20.7885 53.4471C20.7885 53.5109 20.8694 53.532 20.9682 53.4941C21.0671 53.4562 21.1479 53.404 21.1479 53.3782ZM29.8336 52.972C29.8754 52.9043 29.7773 52.8522 29.6081 52.8522C29.4434 52.8522 29.2753 52.9061 29.2346 52.972C29.1927 53.0396 29.2909 53.0917 29.46 53.0917C29.6247 53.0917 29.7928 53.0378 29.8336 52.972ZM24.143 52.3594C24.143 52.2359 23.9995 52.2243 23.7335 52.3263C23.4329 52.4416 23.5135 52.5854 23.8435 52.5224C24.0082 52.4909 24.143 52.4176 24.143 52.3594ZM91.9311 52.3399C92.3399 52.2261 92.396 52.1824 92.1946 52.1347C91.875 52.059 88.0633 52.219 86.0206 52.3939C85.4655 52.4414 89.7523 52.5574 90.633 52.5187C91.0612 52.4999 91.6454 52.4194 91.9311 52.3399ZM96.0839 51.9714C96.2157 51.9403 95.9731 51.9192 95.5448 51.9246C94.5226 51.9374 94.1179 52.0473 94.7661 52.1362C95.0297 52.1723 95.3801 52.1628 95.5448 52.115C95.7096 52.0672 95.9522 52.0026 96.0839 51.9715V51.9714ZM19.6303 52.0066C19.8769 51.9994 19.8753 51.9932 19.5983 51.8826C19.2717 51.7522 18.9915 51.8171 18.9915 52.0233C18.9915 52.0984 19.0766 52.1269 19.181 52.0869C19.2852 52.0469 19.4874 52.0108 19.6303 52.0066ZM97.8837 51.8719C97.9157 51.8398 97.7025 51.8046 97.4098 51.7935C97.1171 51.7825 96.8404 51.8336 96.7949 51.9073C96.7367 52.0013 96.8775 52.0246 97.2687 51.9856C97.5749 51.9551 97.8516 51.9039 97.8837 51.8719ZM191.566 50.4578C191.612 50.3837 191.421 50.3435 191.064 50.3523C190.552 50.3649 190.528 50.3767 190.847 50.4578C191.371 50.5911 191.484 50.5911 191.566 50.4578ZM6.91399 48.7C6.8275 48.6654 6.72418 48.6697 6.68437 48.7094C6.64456 48.7492 6.71531 48.7775 6.84161 48.7723C6.98117 48.7666 7.00956 48.7382 6.91399 48.7V48.7ZM8.32914 48.5423C8.56992 48.4653 8.58166 48.4458 8.38905 48.443C8.25726 48.441 8.04162 48.4857 7.90984 48.5423C7.60456 48.6734 7.91952 48.6734 8.32914 48.5423ZM9.93667 48.5894C10.0409 48.5494 10.1262 48.4199 10.1262 48.3015C10.1262 48.1181 10.0508 48.0956 9.61701 48.1498C9.06652 48.2186 8.70729 48.4226 9.13673 48.4226C9.2778 48.4226 9.42654 48.4765 9.46726 48.5423C9.55249 48.6801 9.66944 48.6919 9.93667 48.5894ZM204.564 46.5071C204.564 46.4412 204.47 46.3882 204.355 46.3892C204.176 46.3907 204.171 46.4079 204.325 46.5071C204.551 46.6531 204.564 46.6531 204.564 46.5071ZM12.9041 41.6365C12.8176 41.6019 12.7143 41.6062 12.6745 41.646C12.6346 41.6857 12.7054 41.714 12.8317 41.7088C12.9713 41.7031 12.9996 41.6747 12.9041 41.6365V41.6365ZM11.9232 41.2872C11.9232 41.0921 11.59 41.0701 11.1523 41.2364C10.6758 41.4175 10.7889 41.5449 11.3841 41.4976C11.7458 41.4688 11.9232 41.3996 11.9232 41.2872ZM14.1485 41.3736C14.0288 41.1801 13.6004 41.1308 13.6004 41.3105C13.6004 41.4113 13.7234 41.4788 13.907 41.4788C14.0756 41.4788 14.1843 41.4315 14.1485 41.3736ZM13.241 41.2394C13.3747 41.1531 13.3056 41.1229 12.9715 41.1215C12.7244 41.1204 12.5222 41.1736 12.5222 41.2394C12.5222 41.3919 13.0049 41.3919 13.241 41.2394ZM212.951 27.2322C212.951 27.1663 212.897 27.1124 212.831 27.1124C212.765 27.1124 212.711 27.1663 212.711 27.2322C212.711 27.298 212.765 27.3519 212.831 27.3519C212.897 27.3519 212.951 27.298 212.951 27.2322ZM213.819 24.9979C213.737 24.9647 213.602 24.9647 213.52 24.9979C213.437 25.0311 213.505 25.0583 213.669 25.0583C213.834 25.0583 213.901 25.0311 213.819 24.9979ZM212.022 23.5561C211.874 23.5275 211.631 23.5275 211.483 23.5561C211.335 23.5846 211.456 23.6079 211.753 23.6079C212.049 23.6079 212.17 23.5846 212.022 23.5561ZM206.481 22.5896C206.481 22.5383 206.037 22.4325 205.493 22.3544C204.949 22.2763 204.375 22.1751 204.216 22.1295C204.037 22.0779 203.956 22.0914 204.001 22.1649C204.042 22.2301 204.549 22.3519 205.128 22.4357C205.708 22.5195 206.236 22.6051 206.302 22.6259C206.367 22.6468 206.435 22.6681 206.451 22.6733C206.468 22.6785 206.481 22.6409 206.481 22.5896ZM31.7504 21.4856C31.9643 21.3937 31.9555 21.3818 31.6676 21.3743C31.4903 21.3697 31.3119 21.4197 31.2712 21.4856C31.1828 21.6285 31.4176 21.6285 31.7504 21.4856ZM205.643 20.7842C205.643 20.7276 205.102 20.6199 204.44 20.5447C202.951 20.3755 202.683 20.3721 202.836 20.5242C202.9 20.5881 203.544 20.6883 204.267 20.747C204.991 20.8056 205.596 20.8611 205.613 20.8703C205.629 20.8795 205.643 20.8407 205.643 20.7842V20.7842ZM25.0292 19.3506C25.0631 19.2957 25.0124 19.2508 24.9164 19.2508C24.8205 19.2508 24.742 19.2957 24.742 19.3506C24.742 19.4055 24.7927 19.4504 24.8547 19.4504C24.9167 19.4504 24.9952 19.4055 25.0292 19.3506ZM41.0575 19.1291C40.971 19.0945 40.8677 19.0988 40.8279 19.1386C40.7881 19.1783 40.8588 19.2066 40.9851 19.2014C41.1247 19.1957 41.1531 19.1673 41.0575 19.1291V19.1291ZM22.4658 18.9715C22.4658 18.9056 22.3714 18.8526 22.2561 18.8536C22.0769 18.8551 22.0726 18.8723 22.2261 18.9715C22.4522 19.1175 22.4658 19.1175 22.4658 18.9715ZM22.945 18.7848C22.945 18.7558 22.891 18.732 22.8252 18.732C22.7593 18.732 22.7054 18.7891 22.7054 18.8588C22.7054 18.9285 22.7593 18.9523 22.8252 18.9116C22.891 18.8709 22.945 18.8139 22.945 18.7848ZM29.7737 17.9513C29.9384 17.9052 30.4505 17.8226 30.9118 17.7677C31.373 17.7127 31.9391 17.6108 32.1697 17.5412C32.4003 17.4716 32.589 17.4192 32.589 17.4247C32.589 17.4706 33.4096 17.2144 33.817 17.0413C34.435 16.7787 34.4741 16.5771 33.9068 16.5771C33.614 16.5771 33.4875 16.5229 33.4875 16.3975C33.4875 16.2134 34.0237 16.1406 34.9137 16.2039C35.3015 16.2315 36.4078 16.0251 36.6611 15.878C36.8502 15.7681 36.2457 15.6442 35.457 15.6312C34.944 15.6228 34.5068 15.7071 33.9667 15.9186C33.5464 16.0832 33.0914 16.2187 32.9556 16.2197C32.759 16.2213 32.7442 16.244 32.8828 16.3316C32.9785 16.3921 33.0998 16.415 33.1523 16.3825C33.2049 16.3501 33.2479 16.3745 33.2479 16.4367C33.2479 16.5439 32.9857 16.6196 32.0706 16.7765C31.8514 16.8141 31.643 16.9207 31.6074 17.0133C31.5545 17.1511 31.5084 17.1539 31.3546 17.0291C31.197 16.9012 31.1779 16.907 31.237 17.065C31.2886 17.203 31.2383 17.2483 31.0498 17.2337C30.908 17.2227 30.6131 17.2625 30.3944 17.3223C30.1188 17.3976 29.9443 17.3873 29.8254 17.2886C29.7289 17.2086 29.6539 17.198 29.6539 17.2645C29.6539 17.3965 28.741 17.7743 28.4219 17.7743C28.3088 17.7743 28.2162 17.8479 28.2162 17.938C28.2162 18.0598 28.3769 18.0931 28.8452 18.0683C29.1911 18.0499 29.6089 17.9973 29.7737 17.9513V17.9513ZM34.7019 13.6095C34.6155 13.5807 34.4878 13.614 34.4182 13.6836C34.3293 13.7725 34.3761 13.788 34.5753 13.736C34.7373 13.6936 34.7916 13.6394 34.7019 13.6095ZM179.406 13.1351C179.406 13.0857 179.242 13.0339 179.042 13.0199C178.834 13.0053 178.709 13.0437 178.75 13.1097C178.833 13.2447 179.406 13.2669 179.406 13.1351ZM35.0449 12.3809L35.3444 12.3717L35.065 12.2598C34.7493 12.1333 34.2063 12.2307 34.2063 12.4138C34.2063 12.4806 34.3268 12.5022 34.4759 12.4623C34.6241 12.4226 34.8802 12.386 35.0449 12.3809ZM178.448 12.4068C178.448 12.352 178.367 12.3071 178.268 12.3071C178.169 12.3071 178.088 12.352 178.088 12.4068C178.088 12.4617 178.169 12.5066 178.268 12.5066C178.367 12.5066 178.448 12.4617 178.448 12.4068ZM178.949 12.4248C178.863 12.3902 178.76 12.3945 178.72 12.4342C178.68 12.474 178.751 12.5023 178.877 12.4971C179.017 12.4914 179.045 12.463 178.949 12.4248V12.4248ZM37.104 12.1854C37.0175 12.1508 36.9142 12.155 36.8744 12.1948C36.8346 12.2346 36.9054 12.2629 37.0317 12.2577C37.1712 12.2519 37.1996 12.2236 37.104 12.1854V12.1854ZM23.6638 12.0277C23.6638 11.9619 23.6099 11.908 23.544 11.908C23.4781 11.908 23.4242 11.9619 23.4242 12.0277C23.4242 12.0935 23.4781 12.1474 23.544 12.1474C23.6099 12.1474 23.6638 12.0935 23.6638 12.0277ZM26.7786 11.7137C26.7786 11.5796 26.5536 11.6972 26.4892 11.8651C26.4261 12.0294 26.4436 12.0368 26.5962 11.9102C26.6965 11.827 26.7786 11.7386 26.7786 11.7137ZM27.9766 11.7284C27.9766 11.6296 27.9554 11.5488 27.9296 11.5488C27.9037 11.5488 27.8514 11.6296 27.8135 11.7284C27.7756 11.8272 27.7968 11.908 27.8606 11.908C27.9244 11.908 27.9766 11.8272 27.9766 11.7284ZM184.82 7.63601C184.733 7.60141 184.63 7.60568 184.59 7.64544C184.55 7.68522 184.621 7.71352 184.747 7.70831C184.887 7.70259 184.915 7.67421 184.82 7.63599V7.63601ZM74.5145 5.21191C74.5524 5.15062 74.5343 5.07012 74.4742 5.03303C74.4142 4.99592 74.3341 5.04608 74.2963 5.14447C74.2219 5.33843 74.4018 5.39408 74.5145 5.21191ZM17.6499 56.5935C17.5809 56.5112 17.5716 56.4422 17.6291 56.4402C17.6866 56.4382 17.6328 56.378 17.5096 56.3065C17.1935 56.123 17.4735 55.9657 18.093 55.9787C18.4165 55.9855 18.4944 56.0141 18.3326 56.0667C18.1043 56.1409 17.9342 56.4456 18.1229 56.4422C18.4747 56.4358 18.7287 56.2793 18.6739 56.1028C18.6204 55.9305 18.6347 55.932 18.7853 56.1146C18.9899 56.3628 19.9016 56.4084 19.9804 56.1745C20.0204 56.0556 20.0691 56.0564 20.217 56.1784C20.4502 56.3707 20.5878 56.838 20.3897 56.765C20.3126 56.7365 20.2669 56.6407 20.2882 56.552C20.3154 56.4392 20.2604 56.451 20.1053 56.5912C19.9283 56.7513 19.6713 56.7868 18.8294 56.7674C18.16 56.752 17.7295 56.6885 17.6499 56.5935L17.6499 56.5935ZM16.0053 56.3296C15.8458 56.231 15.9225 55.965 16.1105 55.965C16.2472 55.965 16.3671 56.303 16.2551 56.3722C16.2054 56.4029 16.093 56.3837 16.0053 56.3296ZM18.5401 55.3664C18.4076 55.1543 18.4214 55.1248 18.661 55.1087C18.8098 55.0987 19.0125 55.0816 19.1113 55.0709C19.4309 55.0361 19.491 55.1455 19.2802 55.3782C19.014 55.6723 18.7284 55.6677 18.5401 55.3664ZM91.1122 54.4755C91.1122 54.4465 91.1661 54.3894 91.232 54.3487C91.2979 54.308 91.3518 54.3318 91.3518 54.4015C91.3518 54.4713 91.2979 54.5283 91.232 54.5283C91.1661 54.5283 91.1122 54.5046 91.1122 54.4755ZM92.5178 54.3937C92.5991 54.3119 92.6958 54.2751 92.7327 54.312C92.7695 54.3489 92.7031 54.4158 92.5849 54.4608C92.4142 54.5257 92.4004 54.512 92.5178 54.3937ZM28.2162 54.0641C28.2162 54.0063 28.2994 53.8901 28.401 53.8058C28.5447 53.6866 28.6178 53.6845 28.7295 53.7961C28.8412 53.9077 28.8334 53.9648 28.6944 54.0526C28.4685 54.1953 28.2162 54.2014 28.2162 54.0641V54.0641ZM163.472 52.972C163.472 52.9061 163.55 52.8522 163.645 52.8522C163.74 52.8522 163.851 52.9061 163.892 52.972C163.932 53.0378 163.855 53.0917 163.719 53.0917C163.583 53.0917 163.472 53.0378 163.472 52.972ZM161.436 52.8448C161.436 52.7085 161.758 52.6946 161.84 52.8274C161.872 52.8796 161.794 52.9301 161.667 52.9397C161.54 52.9492 161.436 52.9065 161.436 52.8448ZM42.6277 52.6516C42.5199 52.3709 42.6842 52.3297 43.0982 52.5336C43.3142 52.64 43.4371 52.7352 43.3712 52.7451C42.8663 52.8209 42.6839 52.798 42.6277 52.6516ZM146.221 52.3734C146.221 52.3075 146.245 52.2536 146.274 52.2536C146.303 52.2536 146.36 52.3075 146.401 52.3734C146.441 52.4392 146.418 52.4931 146.348 52.4931C146.278 52.4931 146.221 52.4392 146.221 52.3734ZM144.494 52.2697C144.442 52.1863 144.432 52.0857 144.472 52.0461C144.579 51.939 144.696 52.0966 144.638 52.2702C144.597 52.3918 144.569 52.3917 144.494 52.2695V52.2697ZM144.933 52.2941C144.688 52.1952 144.763 52.0314 145.023 52.0992C145.155 52.1337 145.263 52.2094 145.263 52.2676C145.263 52.3817 145.169 52.3892 144.933 52.2941ZM202.368 51.6949C202.23 51.5572 202.281 51.4156 202.468 51.4156C202.567 51.4156 202.648 51.4964 202.648 51.5952C202.648 51.7821 202.506 51.8327 202.368 51.6949ZM53.6895 50.9616C53.6572 50.9094 53.7361 50.8588 53.8647 50.8491C53.9933 50.8394 54.0673 50.8821 54.029 50.944C53.9442 51.0812 53.7691 51.0903 53.6895 50.9616ZM54.7694 50.7559C54.807 50.6578 54.9264 50.5734 55.0347 50.5683C55.143 50.5633 55.4741 50.5348 55.7706 50.5052C56.1594 50.4663 56.2597 50.485 56.1301 50.5724C55.9818 50.6724 55.98 50.6939 56.1201 50.6954C56.2134 50.6965 56.2562 50.7308 56.2151 50.7719C56.1741 50.8129 55.8166 50.8662 55.4207 50.8904C54.821 50.927 54.7123 50.9045 54.7694 50.7559ZM5.87833 50.4661C5.78972 50.3228 6.01509 50.1809 6.17467 50.2795C6.30865 50.3622 6.22069 50.5776 6.05291 50.5776C5.9948 50.5776 5.91623 50.5274 5.87833 50.4661ZM7.01132 47.3522C7.01132 47.2902 7.06462 47.2066 7.12976 47.1664C7.19767 47.1244 7.21775 47.1725 7.17684 47.279C7.0972 47.4864 7.01132 47.5244 7.01132 47.3522ZM7.88987 47.2905C7.88987 47.1946 7.93568 47.1445 7.99166 47.1791C8.04764 47.2136 8.06243 47.2921 8.02453 47.3534C7.92765 47.51 7.88987 47.4924 7.88987 47.2905ZM216.664 31.6618C216.566 31.5979 216.539 31.5457 216.605 31.5457C216.67 31.5457 216.805 31.5979 216.904 31.6618C217.003 31.7256 217.03 31.7778 216.964 31.7778C216.898 31.7778 216.763 31.7256 216.664 31.6618ZM19.8301 22.777C19.8301 22.7252 19.9379 22.6828 20.0697 22.6828C20.2015 22.6828 20.3093 22.7333 20.3093 22.7951C20.3093 22.8568 20.2015 22.8992 20.0697 22.8893C19.9379 22.8794 19.8301 22.8289 19.8301 22.777ZM24.847 21.0188L24.5661 20.7915L25.283 20.6964C25.6773 20.6441 26.2829 20.5982 26.6287 20.5945C26.9746 20.5907 27.2576 20.551 27.2577 20.5062C27.2578 20.413 27.9714 20.5987 28.0828 20.7209C28.1232 20.7653 27.99 20.7701 27.7868 20.7315C27.5592 20.6884 27.2829 20.7324 27.068 20.8459C26.8759 20.9474 26.4357 21.0356 26.0898 21.042C25.7438 21.0483 25.4608 21.0969 25.4608 21.1498C25.4608 21.3215 25.1351 21.2519 24.847 21.0188V21.0188ZM23.3368 21.0541C23.3766 21.0143 23.4799 21.01 23.5664 21.0446C23.662 21.0829 23.6336 21.1112 23.4941 21.117C23.3678 21.1222 23.297 21.0939 23.3368 21.0541V21.0541ZM21.1574 19.4004C21.1522 19.2742 21.1805 19.2035 21.2203 19.2433C21.2601 19.2831 21.2644 19.3864 21.2298 19.4728C21.1915 19.5683 21.1631 19.5399 21.1574 19.4004H21.1574ZM24.4293 18.3942C24.4627 18.3401 24.3798 18.2014 24.2449 18.0861C24.0037 17.8797 24.0117 17.8707 24.741 17.526C25.6195 17.1108 25.7004 17.1015 25.7004 17.4151C25.7004 17.5626 25.6199 17.6552 25.4907 17.6564C25.3208 17.6579 25.3132 17.6785 25.4506 17.7654C25.5438 17.8244 25.719 17.8536 25.8399 17.8303C25.9609 17.807 26.0598 17.8429 26.0598 17.91C26.0598 17.9771 25.8846 18.0224 25.6705 18.0107C25.4563 17.999 25.1733 17.9957 25.0415 18.0034C24.8419 18.015 24.8319 18.0368 24.9816 18.1334C25.1352 18.2326 25.1308 18.2498 24.9516 18.2513C24.8363 18.2524 24.742 18.307 24.742 18.3729C24.742 18.4387 24.6579 18.4926 24.5552 18.4926C24.4525 18.4926 24.3958 18.4483 24.4293 18.3942V18.3942ZM25.9611 17.4281C25.8407 17.3537 25.8454 17.3038 25.9836 17.1892C26.1774 17.0284 26.3319 17.1689 26.1985 17.3846C26.1509 17.4615 26.0462 17.4807 25.9611 17.4281ZM21.8068 12.3868C21.7661 12.321 21.8137 12.2671 21.9125 12.2671C22.0113 12.2671 22.1255 12.321 22.1662 12.3868C22.207 12.4527 22.1594 12.5066 22.0606 12.5066C21.9618 12.5066 21.8476 12.4527 21.8068 12.3868ZM24.2605 11.8508C24.433 11.6431 24.5024 11.6215 24.5024 11.7754C24.5024 11.8342 24.4139 11.9163 24.3057 11.9578C24.1413 12.0208 24.1339 12.0033 24.2605 11.8508ZM193.576 9.91883C193.717 9.77849 194.484 9.66851 194.639 9.76652C194.728 9.82291 194.747 9.87524 194.681 9.88277C194.036 9.95665 193.522 9.97343 193.576 9.91883ZM192.849 9.77113C192.75 9.70799 192.824 9.6732 193.059 9.6732C193.259 9.6732 193.423 9.71809 193.423 9.77296C193.423 9.90038 193.051 9.89919 192.849 9.77101V9.77113ZM189.769 9.61828C189.256 9.50355 188.011 9.42127 185.685 9.34835C184.888 9.32337 184.121 9.2413 183.98 9.16597C183.827 9.08399 183.29 9.04228 182.643 9.06208C182.049 9.0803 181.562 9.08294 181.562 9.06791C181.562 9.02626 182.26 8.67544 182.342 8.67544C182.382 8.67544 182.382 8.72931 182.341 8.79515C182.298 8.865 182.42 8.91488 182.634 8.91488C182.835 8.91488 183 8.861 183 8.79515C183 8.72931 183.057 8.67544 183.127 8.67544C183.197 8.67544 183.213 8.74278 183.164 8.82508C183.097 8.93574 183.119 8.94315 183.247 8.8535C183.342 8.78681 183.527 8.73843 183.659 8.746C183.791 8.75352 184.185 8.76769 184.535 8.77744C184.885 8.78718 185.146 8.83556 185.115 8.88494C185.085 8.93433 185.391 8.96684 185.797 8.95721C186.202 8.94747 186.629 8.98989 186.744 9.05122C186.884 9.12566 186.954 9.11918 186.954 9.03177C186.954 8.95971 187.019 8.94101 187.098 8.99021C187.178 9.0394 187.704 9.09434 188.267 9.11231C188.829 9.13027 189.29 9.15135 189.29 9.15915C189.29 9.16698 189.559 9.19079 189.889 9.21214C190.218 9.23348 190.501 9.26287 190.518 9.27746C190.546 9.30235 190.669 9.33862 190.877 9.38306C190.972 9.40344 190.41 9.75115 190.308 9.73493C190.275 9.72964 190.033 9.67716 189.769 9.61821L189.769 9.61828ZM184.917 9.01971C184.917 8.9621 184.812 8.91496 184.684 8.91496C184.557 8.91496 184.423 8.9621 184.387 9.01971C184.351 9.07734 184.456 9.12447 184.62 9.12447C184.783 9.12447 184.917 9.07734 184.917 9.01971ZM191.325 8.67357C191.284 8.60665 191.2 8.58289 191.138 8.62077C191.077 8.65866 191.027 8.63578 191.027 8.56994C191.027 8.33814 191.22 8.33447 191.363 8.56358C191.443 8.69102 191.484 8.79527 191.454 8.79527C191.425 8.79527 191.367 8.74052 191.325 8.67361V8.67357ZM188.761 8.20662C188.634 8.08041 188.506 8.00214 188.475 8.03267C188.445 8.06322 188.157 8.10625 187.836 8.12832C187.281 8.16657 186.592 7.91993 186.766 7.74531C186.906 7.60553 187.733 7.63825 187.914 7.79069C188.099 7.94678 188.436 7.95195 188.587 7.80097C188.715 7.67393 189.326 7.70179 189.41 7.83848C189.525 8.02456 189.354 8.43601 189.162 8.43601C189.067 8.43601 188.887 8.33276 188.761 8.20655V8.20662ZM189.997 8.29786C189.946 8.21536 189.964 8.19201 190.042 8.23995C190.113 8.28413 190.206 8.26551 190.247 8.19859C190.359 8.01809 190.508 8.05122 190.508 8.2565C190.508 8.46739 190.121 8.49869 189.997 8.29786ZM49.9328 7.406C49.9726 7.36621 50.0759 7.36195 50.1624 7.39657C50.258 7.43478 50.2296 7.46315 50.09 7.4689C49.9638 7.47408 49.893 7.44581 49.9328 7.40602V7.406ZM74.1003 4.00643C74.1003 3.9406 74.1241 3.88672 74.1531 3.88672C74.1822 3.88672 74.2393 3.9406 74.28 4.00643C74.3207 4.07229 74.297 4.12616 74.2272 4.12616C74.1574 4.12616 74.1003 4.07229 74.1003 4.00643ZM76.8939 4.01855C76.7005 3.87656 76.7467 3.67252 76.9597 3.72816C77.0955 3.76367 77.1826 3.71483 77.1952 3.59618C77.2062 3.49259 77.2242 3.32703 77.2351 3.22826C77.2461 3.12949 77.3539 3.04196 77.4747 3.03372C77.5955 3.02546 77.7348 3.00763 77.7842 2.99404C77.8336 2.98042 78.0358 2.92587 78.2335 2.87277C78.673 2.75471 78.9118 2.57834 78.8241 2.43652C78.788 2.37814 78.865 2.33037 78.9951 2.33037C79.1253 2.33037 79.2592 2.3977 79.2926 2.48002C79.3348 2.584 79.3836 2.59045 79.4523 2.50122C79.6282 2.27295 79.995 2.2017 80.1885 2.35825C80.3438 2.4839 80.3584 2.48077 80.2734 2.33995C80.1955 2.21082 80.2212 2.18923 80.3801 2.25016C80.4951 2.29428 80.662 2.33036 80.751 2.33036C80.84 2.33036 80.9453 2.43258 80.985 2.55751C81.0314 2.70353 81.1341 2.76454 81.2726 2.72835C81.5784 2.64843 81.5468 2.35242 81.2385 2.40911C80.9949 2.4539 80.9947 2.45226 81.2285 2.34123C81.3603 2.27867 81.6506 2.22369 81.8736 2.21906C82.0966 2.2144 82.6088 2.15781 83.0117 2.09322C84.0561 1.92584 86.6814 1.63253 87.8775 1.5496C88.4376 1.51079 89.1384 1.45767 89.4349 1.43156C90.0596 1.37656 91.2929 1.28901 92.9092 1.18493C93.5352 1.14462 94.3977 1.08196 94.826 1.04571C95.8554 0.958566 97.4758 0.952066 97.7013 1.03422C97.8001 1.07022 98.1101 1.14103 98.3901 1.1916C98.6702 1.24216 98.8993 1.32317 98.8993 1.37162C98.8993 1.42007 98.766 1.5929 98.6031 1.75568C98.362 1.99664 98.1949 2.04947 97.7041 2.03988C97.3456 2.03279 97.1176 2.07724 97.1417 2.14933C97.1639 2.21599 97.5972 2.27498 98.1045 2.28039C98.9012 2.28887 99.4318 2.44377 99.2507 2.61492C99.1697 2.69149 97.5814 2.76716 97.5817 2.69444C97.5818 2.65883 97.218 2.64655 96.7731 2.66714C96.3282 2.68775 95.6549 2.65568 95.2769 2.59574C94.8989 2.53586 94.564 2.51243 94.5328 2.54368C94.5015 2.5749 94.2447 2.61182 93.9621 2.62572C93.6795 2.63962 93.2994 2.6926 93.1173 2.74349C92.9204 2.79852 92.7246 2.78488 92.6341 2.70983C92.5504 2.64043 91.9607 2.5712 91.3236 2.55597C90.535 2.53715 90.1899 2.48717 90.2424 2.39941C90.2849 2.32855 90.228 2.34473 90.1162 2.4354C89.9763 2.54879 89.7608 2.57594 89.4255 2.52236C89.1054 2.47122 88.9641 2.48655 89.0139 2.56702C89.0987 2.70419 89.0829 2.70681 87.9973 2.73596C87.569 2.74746 87.0973 2.79923 86.9491 2.85101C86.8008 2.90278 86.6795 2.90111 86.6795 2.84729C86.6795 2.79347 86.5447 2.74944 86.38 2.74944C86.2153 2.74944 86.0805 2.78984 86.0805 2.83923C86.0805 2.88861 85.9964 2.92902 85.8937 2.92902C85.791 2.92902 85.7351 2.88352 85.7695 2.82788C85.8526 2.69344 84.6219 2.89088 84.5326 3.02632C84.3691 3.27426 82.127 3.52551 82.127 3.2959C82.127 3.22583 82.0699 3.16846 82.0002 3.16846C81.9304 3.16846 81.9043 3.21862 81.9422 3.27991C82.0506 3.45514 81.775 3.56303 81.5967 3.41516C81.4771 3.31597 81.4209 3.32203 81.376 3.43895C81.3372 3.5399 81.1401 3.58602 80.8229 3.56829C80.5518 3.55315 80.33 3.59108 80.33 3.65257C80.33 3.85056 79.7145 3.72054 79.595 3.49731C79.5314 3.37861 79.4273 3.31364 79.3636 3.35296C79.3 3.39228 79.2754 3.46896 79.309 3.52335C79.3427 3.57774 79.2914 3.65249 79.195 3.68943C79.0987 3.72638 78.9875 3.70424 78.9479 3.64022C78.904 3.56925 78.7505 3.59364 78.5547 3.70268C78.1862 3.90788 77.04 4.12591 76.8939 4.0186L76.8939 4.01855ZM75.1785 3.47477C75.1785 3.26449 75.2504 3.23353 75.3531 3.39958C75.391 3.46087 75.3672 3.54487 75.3003 3.58622C75.2333 3.62758 75.1785 3.57754 75.1785 3.47477ZM75.63 3.26797C75.6996 3.19839 75.8273 3.16503 75.9137 3.19382C76.0034 3.22371 75.9491 3.27798 75.7871 3.32031C75.5879 3.37238 75.5411 3.35679 75.63 3.26797ZM116.899 2.9642C116.751 2.93566 116.63 2.87119 116.63 2.82094C116.63 2.67442 117.151 2.75407 117.202 2.90846C117.228 2.98558 117.231 3.04134 117.209 3.03237C117.187 3.02337 117.048 2.99274 116.899 2.9642H116.899ZM114.414 2.68952C114.743 2.5481 114.932 2.5481 114.713 2.68952C114.614 2.75336 114.453 2.80263 114.354 2.799C114.235 2.79466 114.256 2.75737 114.414 2.68952ZM115.139 2.70066C115.102 2.64096 115.18 2.62031 115.312 2.65478C115.592 2.72788 115.627 2.80923 115.379 2.80923C115.284 2.80923 115.176 2.76037 115.139 2.70066ZM99.7165 2.42974C99.528 2.24033 99.6136 2.22719 101.094 2.21828C101.963 2.21299 102.793 2.18556 102.94 2.15719C103.087 2.12882 103.235 2.15084 103.269 2.20608C103.303 2.26133 103.496 2.29512 103.698 2.28116C104.243 2.24346 104.246 2.41775 103.701 2.46969C103.443 2.49425 103.258 2.47288 103.289 2.42234C103.388 2.26332 103.203 2.32232 103.015 2.50993C102.812 2.71359 102.305 2.75026 102.194 2.56947C102.144 2.48976 102.04 2.49161 101.885 2.57497C101.619 2.71683 101.37 2.62043 101.492 2.42326C101.545 2.33704 101.515 2.32884 101.404 2.39887C101.311 2.45693 100.939 2.53306 100.577 2.56806C100.058 2.61812 99.8748 2.58868 99.7165 2.42972V2.42974ZM109.322 2.56977C109.322 2.50393 109.346 2.45006 109.375 2.45006C109.404 2.45006 109.461 2.50393 109.502 2.56977C109.542 2.63562 109.519 2.68949 109.449 2.68949C109.379 2.68949 109.322 2.63562 109.322 2.56977ZM104.53 2.33033C104.422 2.26061 104.407 2.21354 104.493 2.21244C104.571 2.21136 104.669 2.26448 104.71 2.33033C104.802 2.47897 104.76 2.47897 104.53 2.33033ZM151.323 2.31401C151.385 2.21378 150.928 2.09588 150.836 2.18826C150.707 2.31698 150.174 2.34129 150.174 2.21844C150.174 2.14246 149.834 2.12415 149.246 2.16859C148.526 2.22308 148.224 2.195 147.898 2.04336C147.668 1.93588 147.57 1.87263 147.681 1.90282C147.792 1.93301 147.9 1.91087 147.92 1.85369C147.941 1.79649 148.039 1.73218 148.138 1.71077C148.237 1.68939 148.357 1.618 148.406 1.55214C148.454 1.4863 148.494 1.55041 148.495 1.6947C148.497 1.94263 148.515 1.94756 148.827 1.78498C149.122 1.63069 149.173 1.6345 149.322 1.82201C149.48 2.0208 149.484 2.02078 149.416 1.82201C149.36 1.66032 149.409 1.6125 149.633 1.6125C149.793 1.6125 149.978 1.70678 150.045 1.82201C150.113 1.93828 150.169 1.96492 150.171 1.88187C150.175 1.7251 150.534 1.66586 150.534 1.82201C150.534 1.87139 150.941 1.90868 151.44 1.90488C151.938 1.90106 152.372 1.94147 152.405 1.99467C152.438 2.04786 152.58 2.09137 152.721 2.09137C152.927 2.09137 152.948 2.1213 152.828 2.24102C152.678 2.39086 151.232 2.46145 151.323 2.3145V2.31401ZM153.289 2.31041C153.289 2.25553 153.33 2.207 153.379 2.20256C153.429 2.19811 153.641 2.17192 153.852 2.14437C154.326 2.0824 154.495 2.28778 154.039 2.37169C153.588 2.45465 153.289 2.43022 153.289 2.31041ZM144.664 1.91133C144.664 1.84549 144.462 1.79162 144.214 1.79162C143.967 1.79162 143.725 1.84549 143.677 1.91133C143.618 1.99114 143.588 1.99114 143.587 1.91133C143.584 1.76134 142.867 1.72586 142.867 1.87573C142.867 1.93601 142.818 1.95507 142.758 1.91808C142.644 1.84762 141.59 1.73447 140.471 1.67252C140.108 1.65246 139.812 1.62396 139.812 1.60916C139.812 1.52892 138.235 1.52768 138.134 1.60786C137.954 1.75096 136.757 1.8508 136.757 1.72269C136.757 1.66183 136.676 1.61204 136.577 1.61204C136.478 1.61204 136.397 1.66403 136.397 1.72758C136.397 1.79971 135.553 1.82181 134.151 1.78645C132.915 1.7553 131.775 1.73037 131.616 1.73106C131.457 1.73214 131.147 1.68264 130.927 1.62196C130.686 1.55561 130.527 1.55519 130.527 1.62087C130.527 1.72967 130.108 1.71205 129.994 1.59846C129.962 1.5657 129.416 1.55805 128.783 1.58146C128.019 1.60968 127.574 1.5767 127.462 1.48363C127.33 1.37427 127.292 1.37956 127.29 1.50753C127.289 1.61135 127.256 1.6258 127.201 1.54678C127.148 1.47172 126.466 1.41577 125.495 1.40682C124.606 1.39866 121.91 1.36107 119.505 1.32342C117.1 1.28578 114.014 1.24779 112.647 1.23902C111.279 1.23035 110.161 1.18937 110.16 1.14817C110.16 1.10695 109.864 1.07324 109.501 1.07324C109.139 1.07324 108.843 1.11364 108.843 1.16303C108.843 1.21241 108.786 1.25282 108.716 1.25282C108.646 1.25282 108.622 1.19894 108.663 1.1331C108.704 1.06726 108.653 1.01338 108.55 1.01338C108.448 1.01344 108.364 0.959562 108.364 0.893723C108.364 0.827874 108.307 0.773997 108.237 0.773997C108.167 0.773997 108.143 0.827874 108.184 0.893723C108.228 0.964432 108.096 1.01269 107.862 1.0116C107.562 1.01008 107.509 0.981555 107.645 0.893723C107.778 0.808008 107.783 0.777186 107.666 0.775831C107.544 0.774312 107.549 0.732714 107.688 0.594417C107.786 0.495649 107.979 0.414836 108.115 0.414836C108.252 0.414836 108.364 0.357329 108.364 0.287043C108.364 0.21124 108.467 0.19211 108.618 0.240024C108.79 0.294363 108.846 0.27742 108.791 0.188233C108.746 0.115321 108.741 0.055675 108.78 0.055675C108.819 0.055675 108.892 0.166474 108.942 0.3019L109.033 0.548135L109.349 0.299792C109.565 0.129572 109.691 0.0937929 109.748 0.186072C109.807 0.281515 109.86 0.273428 109.932 0.158258C110.013 0.026251 110.835 -0.00334491 114.319 0.000287362C116.677 0.00282453 119.577 0.0393498 120.763 0.0816598C121.949 0.123961 123.917 0.189809 125.136 0.227993C129.537 0.365832 130.671 0.415929 130.77 0.476845C130.99 0.612959 131.956 0.733699 132.102 0.643422C132.192 0.58779 132.297 0.607654 132.351 0.69053C132.42 0.797484 132.474 0.788283 132.562 0.654275C132.627 0.555505 132.681 0.528567 132.682 0.594417C132.683 0.669977 133.424 0.708797 134.69 0.69967C136.691 0.685227 140.111 0.878485 140.111 1.00606C140.111 1.04304 140.529 1.06723 141.04 1.05984C141.915 1.04716 143.93 1.211 144.288 1.32387C144.42 1.36551 144.422 1.41027 144.301 1.55635C144.178 1.70356 144.182 1.72745 144.317 1.68464C144.409 1.65571 144.634 1.59902 144.818 1.55867C145.024 1.51346 145.126 1.4292 145.083 1.33916C145.045 1.25878 145.077 1.27735 145.154 1.3804C145.267 1.53195 145.421 1.55054 145.959 1.47758C146.337 1.42628 146.714 1.43582 146.834 1.4997C146.949 1.56149 147.196 1.61938 147.381 1.62834C147.692 1.64335 147.696 1.64894 147.43 1.69907C147.206 1.74119 147.179 1.77771 147.31 1.86051C147.495 1.97768 147.339 1.99235 145.652 2.01677C145.063 2.02525 144.664 1.98264 144.664 1.91134L144.664 1.91133ZM109.845 0.83454C109.807 0.736142 109.728 0.685457 109.669 0.721892C109.5 0.826358 109.544 1.01343 109.738 1.01343C109.844 1.01343 109.887 0.9432 109.845 0.83454ZM102.858 1.24379C102.981 1.01356 102.974 0.987419 102.804 1.05244C102.635 1.11731 102.627 1.09109 102.749 0.863543L102.891 0.59933L103.01 0.866246C103.147 1.17247 103.394 1.217 103.495 0.953568C103.533 0.854798 103.521 0.773987 103.468 0.773987C103.415 0.773987 103.372 0.692519 103.372 0.592934C103.372 0.445735 103.48 0.426228 103.951 0.488638C104.347 0.541071 104.53 0.522575 104.53 0.430266C104.53 0.355194 104.72 0.295114 104.956 0.295114C105.236 0.295114 105.355 0.340462 105.301 0.426778C105.243 0.52038 105.293 0.519587 105.471 0.424025C105.68 0.312327 105.711 0.320428 105.653 0.471938C105.614 0.572223 105.534 0.654281 105.476 0.654281C105.417 0.654281 105.369 0.708156 105.369 0.773994C105.369 1.02355 105.585 0.879318 105.728 0.534555C105.895 0.132479 105.899 0.130269 106.199 0.290885C106.351 0.371909 106.398 0.49842 106.356 0.714871C106.324 0.884551 106.344 1.00768 106.402 0.988477C106.46 0.969285 106.534 1.00621 106.567 1.07058C106.602 1.13978 106.317 1.19587 105.87 1.20789C105.178 1.22645 105.101 1.20355 104.982 0.941239C104.853 0.658401 104.41 0.53437 104.41 0.781059C104.41 0.850805 104.463 0.874933 104.529 0.834709C104.595 0.793423 104.617 0.839265 104.579 0.9398C104.539 1.04395 104.431 1.08785 104.321 1.04539C104.198 0.998175 104.161 1.02054 104.216 1.10931C104.312 1.26514 103.914 1.38021 103.452 1.33009C103.287 1.31224 103.054 1.34551 102.934 1.40403C102.738 1.49938 102.73 1.48274 102.858 1.24379V1.24379ZM106.135 0.793947C106.169 0.739077 106.121 0.694183 106.027 0.694183C105.934 0.694183 105.886 0.739077 105.92 0.793947C105.954 0.848815 106.002 0.893713 106.027 0.893713C106.053 0.893713 106.101 0.848815 106.135 0.793947ZM101.244 1.26648C101.208 1.20811 101.286 1.1323 101.417 1.09798C101.576 1.05643 101.631 0.971918 101.583 0.84494C101.542 0.740073 101.56 0.654271 101.622 0.654271C101.786 0.654271 101.76 1.04535 101.583 1.22152C101.405 1.40021 101.332 1.40976 101.244 1.26648ZM101.978 0.933619C102.012 0.84582 102.055 0.773987 102.074 0.773987C102.093 0.773987 102.136 0.84582 102.17 0.933619C102.203 1.02142 102.16 1.09325 102.074 1.09325C101.988 1.09325 101.945 1.02142 101.978 0.933619ZM102.44 0.598219C102.568 0.501546 102.791 0.420735 102.936 0.418638C103.221 0.414409 103.403 0.596037 103.224 0.706612C103.163 0.744487 103.092 0.713594 103.067 0.637849C103.032 0.534422 102.957 0.534222 102.765 0.636767C102.397 0.833723 102.165 0.805969 102.44 0.597884V0.598219ZM100.849 0.581932C100.888 0.542151 100.992 0.537896 101.078 0.572499C101.174 0.610712 101.145 0.639083 101.006 0.644821C100.88 0.650004 100.809 0.621727 100.849 0.581946V0.581932ZM107.166 0.534539C107.012 0.435366 107.016 0.418214 107.196 0.416646C107.311 0.415562 107.405 0.468687 107.405 0.534539C107.405 0.680554 107.392 0.680554 107.166 0.534539ZM106.522 0.352195C106.465 0.203415 106.496 0.193168 106.689 0.296543C106.967 0.445067 106.993 0.534539 106.759 0.534539C106.667 0.534539 106.561 0.452479 106.522 0.352195Z" fill="#FAF089"/>
</svg>
